<?xml version="1.0" standalone="no"?>
<!DOCTYPE svg PUBLIC "-//W3C//DTD SVG 20010904//EN"
 "http://www.w3.org/TR/2001/REC-SVG-20010904/DTD/svg10.dtd">
<svg version="1.0" xmlns="http://www.w3.org/2000/svg"
 width="137.000000pt" height="137.000000pt" viewBox="0 0 137.000000 137.000000"
 preserveAspectRatio="xMidYMid meet">
<metadata>
Created by potrace 1.11, written by Peter Selinger 2001-2013
</metadata>
<g transform="translate(0.000000,137.000000) scale(0.100000,-0.100000)"
fill="#000000" stroke="none">
<path d="M419 863 c-14 -3 -24 -40 -74 -266 -2 -10 -7 -28 -10 -40 -4 -12 -9
-30 -11 -39 -4 -15 1 -18 30 -18 38 0 43 4 50 41 7 38 26 122 32 142 6 21 37
22 53 3 11 -13 0 -89 -25 -169 -5 -16 -1 -18 32 -15 l38 3 17 70 c23 91 23
128 0 156 -14 18 -29 24 -58 24 -40 0 -40 0 -33 30 22 85 22 85 -2 84 -13 -1
-30 -3 -39 -6z"/>
<path d="M137 847 c-9 -6 -43 -48 -77 -91 -69 -90 -68 -103 10 -100 l51 3 -3
-55 c-3 -37 0 -58 9 -66 15 -12 14 -13 93 99 55 79 62 103 28 104 -90 4 -83
-1 -83 56 0 59 -5 68 -28 50z m7 -39 c-1 -13 -5 -38 -8 -55 l-6 -33 60 0 60 0
-46 -67 c-66 -95 -66 -96 -63 -33 l3 55 -57 3 -57 3 57 75 c32 40 58 74 59 74
1 0 0 -10 -2 -22z"/>
<path d="M680 742 c-41 -22 -80 -90 -80 -140 0 -89 77 -134 160 -92 71 36 105
160 58 214 -31 36 -90 44 -138 18z m80 -57 c19 -23 5 -86 -25 -112 -46 -40
-78 2 -55 71 17 51 55 71 80 41z"/>
<path d="M940 750 c-22 -5 -28 -17 -52 -110 -36 -138 -36 -140 5 -140 l34 0
24 98 c21 84 27 97 47 100 33 5 37 -21 18 -102 -22 -95 -22 -96 18 -96 l34 0
20 84 c11 46 17 96 15 110 -11 56 -74 77 -163 56z"/>
<path d="M1230 749 c-93 -37 -127 -179 -57 -238 18 -14 115 -20 135 -7 7 4 12
19 12 33 0 23 -3 25 -40 20 -24 -2 -47 1 -57 9 -23 16 -17 21 30 28 71 11 106
40 112 91 1 6 -4 22 -11 36 -18 37 -71 49 -124 28z m68 -71 c2 -12 -8 -20 -37
-29 -50 -15 -59 -8 -37 26 20 30 69 32 74 3z"/>
</g>
</svg>
