<svg id="Layer_1" data-name="Layer 1" xmlns="http://www.w3.org/2000/svg" viewBox="0 0 43.61 43.61"><defs><style>.cls-1,.cls-2{fill:#23b482;}.cls-1{opacity:0;}</style></defs><title>icon_</title><g id="Icon"><rect id="Security_Space" data-name="Security Space" class="cls-1" x="3.61" y="3.61" width="37" height="37"/><g id="Icon-2" data-name="Icon"><path class="cls-2" d="M12.28,30.44a2.25,2.25,0,0,0,2.24-2.24V15.49a2.24,2.24,0,1,0-4.49,0V28.2A2.25,2.25,0,0,0,12.28,30.44Zm-0.75-15a0.75,0.75,0,1,1,1.5,0V28.2a0.75,0.75,0,0,1-1.5,0V15.49Z"/><path class="cls-2" d="M19,30.44a2.25,2.25,0,0,0,2.24-2.24V21.47a2.24,2.24,0,1,0-4.49,0V28.2A2.25,2.25,0,0,0,19,30.44Zm-0.75-9a0.75,0.75,0,1,1,1.5,0V28.2a0.75,0.75,0,1,1-1.5,0V21.47Z"/><path class="cls-2" d="M32.47,30.44a2.25,2.25,0,0,0,2.24-2.24V23.71a2.24,2.24,0,1,0-4.49,0V28.2A2.25,2.25,0,0,0,32.47,30.44Zm-0.75-6.73a0.75,0.75,0,0,1,1.5,0V28.2a0.75,0.75,0,0,1-1.5,0V23.71Z"/><path class="cls-2" d="M25.74,30.44A2.25,2.25,0,0,0,28,28.2V12.49a2.24,2.24,0,1,0-4.49,0V28.2A2.25,2.25,0,0,0,25.74,30.44ZM25,12.49a0.75,0.75,0,1,1,1.5,0V28.2a0.75,0.75,0,1,1-1.5,0V12.49Z"/><rect class="cls-2" x="10.04" y="31.94" width="25.42" height="1.5"/></g></g></svg>